<svg xmlns="http://www.w3.org/2000/svg" xmlns:xlink="http://www.w3.org/1999/xlink" viewBox="0 0 738 348" width="738" height="348"><path d="M 214.500,68.200 C 217.000,65.700 216.571,64.664 219.500,63.200" stroke-width="5.319" stroke="black" fill="none" stroke-linecap="round"></path><path d="M 219.500,63.200 C 221.571,62.164 222.671,61.828 224.500,63.200" stroke-width="5.007" stroke="black" fill="none" stroke-linecap="round"></path><path d="M 224.500,63.200 C 228.671,66.328 229.283,67.102 231.500,72.200" stroke-width="4.398" stroke="black" fill="none" stroke-linecap="round"></path><path d="M 231.500,72.200 C 234.283,78.602 233.924,79.102 234.500,86.200" stroke-width="3.362" stroke="black" fill="none" stroke-linecap="round"></path><path d="M 234.500,86.200 C 235.424,97.602 235.318,97.749 234.500,109.200" stroke-width="2.683" stroke="black" fill="none" stroke-linecap="round"></path><path d="M 234.500,109.200 C 233.318,125.749 233.853,125.996 230.500,142.200" stroke-width="2.021" stroke="black" fill="none" stroke-linecap="round"></path><path d="M 230.500,142.200 C 227.853,154.996 226.650,154.750 222.500,167.200" stroke-width="2.150" stroke="black" fill="none" stroke-linecap="round"></path><path d="M 222.500,167.200 C 219.650,175.750 219.955,175.908 216.500,184.200" stroke-width="2.526" stroke="black" fill="none" stroke-linecap="round"></path><path d="M 216.500,184.200 C 214.955,187.908 212.808,192.894 212.500,191.200" stroke-width="3.269" stroke="black" fill="none" stroke-linecap="round"></path><path d="M 212.500,191.200 C 211.808,187.394 212.522,181.962 214.500,173.200" stroke-width="4.291" stroke="black" fill="none" stroke-linecap="round"></path><path d="M 214.500,173.200 C 216.022,166.462 216.655,166.548 219.500,160.200" stroke-width="3.375" stroke="black" fill="none" stroke-linecap="round"></path><path d="M 219.500,160.200 C 223.155,152.048 223.202,152.037 227.500,144.200" stroke-width="2.837" stroke="black" fill="none" stroke-linecap="round"></path><path d="M 227.500,144.200 C 231.702,136.537 231.655,136.468 236.500,129.200" stroke-width="2.848" stroke="black" fill="none" stroke-linecap="round"></path><path d="M 236.500,129.200 C 240.655,122.968 240.879,123.105 245.500,117.200" stroke-width="2.823" stroke="black" fill="none" stroke-linecap="round"></path><path d="M 245.500,117.200 C 249.879,111.605 249.839,111.560 254.500,106.200" stroke-width="2.987" stroke="black" fill="none" stroke-linecap="round"></path><path d="M 254.500,106.200 C 259.839,100.060 260.235,100.395 265.500,94.200" stroke-width="2.907" stroke="black" fill="none" stroke-linecap="round"></path><path d="M 265.500,94.200 C 268.735,90.395 268.278,90.008 271.500,86.200" stroke-width="3.274" stroke="black" fill="none" stroke-linecap="round"></path><path d="M 271.500,86.200 C 273.778,83.508 276.500,81.462 276.500,81.200" stroke-width="3.734" stroke="black" fill="none" stroke-linecap="round"></path><path d="M 276.500,81.200 C 276.500,80.962 273.522,82.774 271.500,85.200" stroke-width="4.772" stroke="black" fill="none" stroke-linecap="round"></path><path d="M 271.500,85.200 C 268.522,88.774 268.744,89.057 266.500,93.200" stroke-width="3.836" stroke="black" fill="none" stroke-linecap="round"></path><path d="M 266.500,93.200 C 262.244,101.057 262.602,101.253 258.500,109.200" stroke-width="2.998" stroke="black" fill="none" stroke-linecap="round"></path><path d="M 258.500,109.200 C 254.602,116.753 254.530,116.716 250.500,124.200" stroke-width="2.866" stroke="black" fill="none" stroke-linecap="round"></path><path d="M 250.500,124.200 C 247.530,129.716 247.298,129.605 244.500,135.200" stroke-width="3.062" stroke="black" fill="none" stroke-linecap="round"></path><path d="M 244.500,135.200 C 243.298,137.605 243.928,137.955 242.500,140.200" stroke-width="3.783" stroke="black" fill="none" stroke-linecap="round"></path><path d="M 242.500,140.200 C 240.428,143.455 240.244,143.456 237.500,146.200" stroke-width="4.716" stroke="black" fill="none" stroke-linecap="round"></path><path d="M 237.500,146.200 C 235.744,147.956 235.377,147.558 233.500,149.200" stroke-width="5.266" stroke="black" fill="none" stroke-linecap="round"></path><path d="M 233.500,149.200 C 231.377,151.058 228.686,152.793 229.500,153.200" stroke-width="5.414" stroke="black" fill="none" stroke-linecap="round"></path><path d="M 229.500,153.200 C 230.686,153.793 233.601,152.500 237.500,151.200" stroke-width="5.467" stroke="black" fill="none" stroke-linecap="round"></path><path d="M 237.500,151.200 C 241.101,150.000 240.871,149.334 244.500,148.200" stroke-width="4.254" stroke="black" fill="none" stroke-linecap="round"></path><path d="M 244.500,148.200 C 256.871,144.334 257.031,144.809 269.500,141.200" stroke-width="2.981" stroke="black" fill="none" stroke-linecap="round"></path><path d="M 269.500,141.200 C 314.031,128.309 313.947,128.016 358.500,115.200" stroke-width="1.495" stroke="black" fill="none" stroke-linecap="round"></path><path d="M 358.500,115.200 C 386.947,107.016 386.979,107.123 415.500,99.200" stroke-width="1.318" stroke="black" fill="none" stroke-linecap="round"></path><path d="M 415.500,99.200 C 431.979,94.623 432.074,94.945 448.500,90.200" stroke-width="1.618" stroke="black" fill="none" stroke-linecap="round"></path><path d="M 195.500,212.200 C 199.000,212.200 199.000,212.200 202.500,212.200" stroke-width="5.315" stroke="black" fill="none" stroke-linecap="round"></path><path d="M 202.500,212.200 C 234.000,212.200 234.000,212.200 265.500,212.200" stroke-width="2.122" stroke="black" fill="none" stroke-linecap="round"></path><path d="M 265.500,212.200 C 291.000,212.200 291.000,212.200 316.500,212.200" stroke-width="1.565" stroke="black" fill="none" stroke-linecap="round"></path><path d="M 316.500,212.200 C 348.000,212.200 348.001,212.004 379.500,212.200" stroke-width="1.372" stroke="black" fill="none" stroke-linecap="round"></path><path d="M 379.500,212.200 C 428.501,212.504 428.507,213.200 477.500,213.200" stroke-width="1.334" stroke="black" fill="none" stroke-linecap="round"></path><path d="M 477.500,213.200 C 490.007,213.200 490.039,213.031 502.500,212.200" stroke-width="1.838" stroke="black" fill="none" stroke-linecap="round"></path></svg>